# xmcd
#
# Track frame offsets:
#	150
#	17440
#	27270
#	44424
#	54963
#	71679
#	84285
#	103607
#	113706
#	135940
#	147741
#	159000
#
# Disc length: 2301 seconds
#
# Revision: 0
# Processed by: cddbd v1.5.1PL2 Copyright (c) Steve Scherf et al.
# Submitted via: dBpowerAMP V4.0
#
DISCID=8f08fb0c
DTITLE=Mike Blanton and Evidence - Praising Him
DYEAR=2006
DGENRE=Gospel
TTITLE0=Beautiful Day
TTITLE1=How Sweet It Is
TTITLE2=One More Time
TTITLE3=Brand New Home
TTITLE4=Even In the Valley
TTITLE5=I'll Take the Old Highway
TTITLE6=I Still Trust You Lord
TTITLE7=Campmeeting Days
TTITLE8=Calvary Still Touches Me
TTITLE9=Sitting At the Table
TTITLE10=My God's Bigger Than That
TTITLE11=Tears Will Never Stain
EXTD=Scott Bumgardner
EXTT0=
EXTT1=
EXTT2=
EXTT3=
EXTT4=
EXTT5=
EXTT6=
EXTT7=
EXTT8=
EXTT9=
EXTT10=
EXTT11=
PLAYORDER=
